# Hierarchical Translation and Rotation (.htr) file
# Generated by EVaRT
[Header]
FileType htr
DataType HTRS
FileVersion 1
NumSegments 23
NumFrames 4
DataFrameRate 120
EulerRotationOrder ZYX
CalibrationUnits mm
RotationUnits Degrees
GlobalAxisofGravity Y
BoneLengthAxis Y
ScaleFactor 1
[SegmentNames&Hierarchy]
#CHILD            PARENT
DaveRoot          GLOBAL
Spine1            DaveRoot
Spine2            Spine1
Spine3            Spine2
Spine4            Spine3
Neck              Spine4
Head              Neck
LClavicle         Spine4
LUpperArm         LClavicle
LLowerArm         LUpperArm
LHand             LLowerArm
RClavicle         Spine4
RUpperArm         RClavicle
RLowerArm         RUpperArm
RHand             RLowerArm
RUpperLeg         DaveRoot
RLowerLeg         RUpperLeg
RFoot             RLowerLeg
RToes             RFoot
LUpperLeg         DaveRoot
LLowerLeg         LUpperLeg
LFoot             LLowerLeg
LToes             LFoot
[BasePosition]
#SegmentName      Tx   Ty   Tz   Rx   Ry   Rz   BoneLength
DaveRoot          1078.678277	988.889323	-667.355416	21.100172	-35.850280	-13.563871	100.000000
Spine1            0.000000	100.000000	0.000000	-14.881963	2.292165	3.740750	100.000000
Spine2            0.000000	100.000000	0.000000	6.530342	0.668586	4.295175	100.000000
Spine3            0.000000	100.000000	0.000000	12.838786	0.191691	4.342582	100.000000
Spine4            0.000000	100.000000	0.000000	14.062130	1.171471	5.872723	100.000000
Neck              0.000000	100.000000	0.000000	7.737895	11.498691	-3.920750	80.000000
Head              0.000000	80.000000	0.000000	-47.820279	-9.378091	-2.499782	200.000000
LClavicle         0.000000	100.000000	0.000000	7.006000	0.163524	-123.648937	200.000000
LUpperArm         0.000000	200.000000	0.000000	39.957204	52.516966	-16.160711	300.000000
LLowerArm         0.000000	300.000000	0.000000	-1.806693	2.175812	1.895763	200.000000
LHand             0.000000	200.000000	0.000000	16.195035	-1.768569	8.793625	120.000000
RClavicle         0.000000	100.000000	0.000000	3.329328	-3.962094	109.315139	200.000000
RUpperArm         0.000000	200.000000	0.000000	31.467517	-27.516660	21.198784	300.000000
RLowerArm         0.000000	300.000000	0.000000	20.023297	-3.682026	-7.348670	200.000000
RHand             0.000000	200.000000	0.000000	6.266882	13.427731	10.826414	120.000000
RUpperLeg         -115.911102	-10.000000	31.058285	22.207319	27.607647	-154.283666	530.000000
RLowerLeg         0.000000	530.000000	0.000000	-15.604109	0.479387	-2.520024	460.000000
RFoot             0.000000	460.000000	0.000000	98.099007	-9.797309	28.788465	130.000000
RToes             0.000000	130.000000	0.000000	-15.148141	0.005479	-0.002881	100.000000
LUpperLeg         115.911102	-10.000000	31.058285	41.660003	-3.682702	-163.432677	530.000000
LLowerLeg         0.000000	530.000000	0.000000	-22.778950	-3.275937	3.046484	460.000000
LFoot             0.000000	460.000000	0.000000	77.647326	-23.190969	-3.622247	130.000000
LToes             0.000000	130.000000	0.000000	14.512714	-0.000000	-0.000086	100.000000
#Beginning of Data.
[DaveRoot]
#Fr	Tx	Ty	Tz	Rx	Ry	Rz	SF
909	-2245.673477	-854.612759	563.823888	66.518625	21.089804	1.017319	1.000000	
910	-2250.417613	-852.049882	561.717741	66.627653	20.971409	1.162556	1.000000	
911	-2255.321610	-849.376441	559.566108	66.777743	20.953063	1.402935	1.000000	
912	-2260.378806	-846.616252	557.395611	66.955509	21.051221	1.752916	1.000000	
[Spine1]
#Fr	Tx	Ty	Tz	Rx	Ry	Rz	SF
909	0.000000	0.000000	0.000000	-2.484507	-4.948194	2.626438	1.000000	
910	0.000000	0.000000	0.000000	-2.482383	-4.832190	2.490921	1.000000	
911	0.000000	0.000000	0.000000	-2.483483	-4.749330	2.352822	1.000000	
912	0.000000	0.000000	0.000000	-2.479726	-4.705957	2.220090	1.000000	
[Spine2]
#Fr	Tx	Ty	Tz	Rx	Ry	Rz	SF
909	0.000000	0.000000	0.000000	-2.484507	-4.948194	2.626438	1.000000	
910	0.000000	0.000000	0.000000	-2.482383	-4.832190	2.490921	1.000000	
911	0.000000	0.000000	0.000000	-2.483483	-4.749330	2.352822	1.000000	
912	0.000000	0.000000	0.000000	-2.479726	-4.705957	2.220090	1.000000	
[Spine3]
#Fr	Tx	Ty	Tz	Rx	Ry	Rz	SF
909	0.000000	0.000000	0.000000	-2.484507	-4.948194	2.626438	1.000000	
910	0.000000	0.000000	0.000000	-2.482383	-4.832190	2.490921	1.000000	
911	0.000000	0.000000	0.000000	-2.483483	-4.749330	2.352822	1.000000	
912	0.000000	0.000000	0.000000	-2.479726	-4.705957	2.220090	1.000000	
[Spine4]
#Fr	Tx	Ty	Tz	Rx	Ry	Rz	SF
909	0.000000	0.000000	0.000000	-2.484507	-4.948194	2.626438	1.000000	
910	0.000000	0.000000	0.000000	-2.482383	-4.832190	2.490921	1.000000	
911	0.000000	0.000000	0.000000	-2.483483	-4.749330	2.352822	1.000000	
912	0.000000	0.000000	0.000000	-2.479726	-4.705957	2.220090	1.000000	
[Neck]
#Fr	Tx	Ty	Tz	Rx	Ry	Rz	SF
909	0.000000	0.000000	0.000000	-3.603946	1.274981	6.505943	1.000000	
910	0.000000	0.000000	0.000000	-3.605790	1.649087	6.746700	1.000000	
911	0.000000	0.000000	0.000000	-3.656458	2.002067	7.006862	1.000000	
912	0.000000	0.000000	0.000000	-3.772498	2.322514	7.253793	1.000000	
[Head]
#Fr	Tx	Ty	Tz	Rx	Ry	Rz	SF
909	0.000000	0.000000	0.000000	-3.603946	1.274981	6.505943	1.000000	
910	0.000000	0.000000	0.000000	-3.605790	1.649087	6.746700	1.000000	
911	0.000000	0.000000	0.000000	-3.656458	2.002067	7.006862	1.000000	
912	0.000000	0.000000	0.000000	-3.772498	2.322514	7.253793	1.000000	
[LClavicle]
#Fr	Tx	Ty	Tz	Rx	Ry	Rz	SF
909	0.000000	0.000000	0.000000	7.466105	-0.807067	25.462270	1.000000	
910	0.000000	0.000000	0.000000	7.814268	-0.896999	25.835346	1.000000	
911	0.000000	0.000000	0.000000	8.128978	-0.991304	26.233710	1.000000	
912	0.000000	0.000000	0.000000	8.400427	-1.084864	26.633606	1.000000	
[LUpperArm]
#Fr	Tx	Ty	Tz	Rx	Ry	Rz	SF
909	0.000000	0.000000	0.000000	-2.374164	83.098886	95.400799	1.000000	
910	0.000000	0.000000	0.000000	-4.626535	83.391977	92.495300	1.000000	
911	0.000000	0.000000	0.000000	-6.530593	83.643226	89.980870	1.000000	
912	0.000000	0.000000	0.000000	-8.277397	83.859798	87.704535	1.000000	
[LLowerArm]
#Fr	Tx	Ty	Tz	Rx	Ry	Rz	SF
909	0.000000	0.000000	0.000000	-88.190680	0.000000	0.000000	1.000000	
910	0.000000	0.000000	0.000000	-88.479208	0.000000	0.000000	1.000000	
911	0.000000	0.000000	0.000000	-88.723720	0.000000	0.000000	1.000000	
912	0.000000	0.000000	0.000000	-88.917944	0.000000	0.000000	1.000000	
[LHand]
#Fr	Tx	Ty	Tz	Rx	Ry	Rz	SF
909	0.000000	0.000000	0.000000	17.197571	-0.000000	0.000000	1.000000	
910	0.000000	0.000000	0.000000	17.309437	-0.000000	0.000000	1.000000	
911	0.000000	0.000000	0.000000	17.347959	-0.000000	0.000000	1.000000	
912	0.000000	0.000000	0.000000	17.321828	-0.000000	0.000000	1.000000	
[RClavicle]
#Fr	Tx	Ty	Tz	Rx	Ry	Rz	SF
909	0.000000	0.000000	0.000000	1.377102	0.063484	-4.154810	1.000000	
910	0.000000	0.000000	0.000000	1.442987	0.063587	-4.038503	1.000000	
911	0.000000	0.000000	0.000000	1.520989	0.062216	-3.857696	1.000000	
912	0.000000	0.000000	0.000000	1.605096	0.059434	-3.635907	1.000000	
[RUpperArm]
#Fr	Tx	Ty	Tz	Rx	Ry	Rz	SF
909	0.000000	0.000000	0.000000	50.267171	38.578772	-17.203070	1.000000	
910	0.000000	0.000000	0.000000	50.355967	38.522788	-16.648593	1.000000	
911	0.000000	0.000000	0.000000	50.401561	38.418324	-16.175560	1.000000	
912	0.000000	0.000000	0.000000	50.455657	38.290618	-15.744172	1.000000	
[RLowerArm]
#Fr	Tx	Ty	Tz	Rx	Ry	Rz	SF
909	0.000000	0.000000	0.000000	63.717376	0.000000	0.000000	1.000000	
910	0.000000	0.000000	0.000000	63.439601	0.000000	0.000000	1.000000	
911	0.000000	0.000000	0.000000	63.221936	0.000000	0.000000	1.000000	
912	0.000000	0.000000	0.000000	63.094222	0.000000	0.000000	1.000000	
[RHand]
#Fr	Tx	Ty	Tz	Rx	Ry	Rz	SF
909	0.000000	0.000000	0.000000	55.961188	-60.963717	-69.640396	1.000000	
910	0.000000	0.000000	0.000000	56.412658	-60.305480	-69.635041	1.000000	
911	0.000000	0.000000	0.000000	56.797906	-59.746757	-69.774936	1.000000	
912	0.000000	0.000000	0.000000	57.284809	-59.436936	-70.169455	1.000000	
[RUpperLeg]
#Fr	Tx	Ty	Tz	Rx	Ry	Rz	SF
909	0.000000	0.000000	0.000000	8.939648	-40.997860	-31.992144	1.000000	
910	0.000000	0.000000	0.000000	9.162894	-41.618912	-31.784597	1.000000	
911	0.000000	0.000000	0.000000	9.271329	-42.159489	-31.473176	1.000000	
912	0.000000	0.000000	0.000000	9.220146	-42.593607	-31.041008	1.000000	
[RLowerLeg]
#Fr	Tx	Ty	Tz	Rx	Ry	Rz	SF
909	0.000000	0.000000	0.000000	-25.576944	-0.000000	0.000000	1.000000	
910	0.000000	0.000000	0.000000	-26.465414	-0.000000	0.000000	1.000000	
911	0.000000	0.000000	0.000000	-27.271940	-0.000000	0.000000	1.000000	
912	0.000000	0.000000	0.000000	-27.965729	-0.000000	0.000000	1.000000	
[RFoot]
#Fr	Tx	Ty	Tz	Rx	Ry	Rz	SF
909	0.000000	0.000000	0.000000	-29.346713	-31.344644	-17.964706	1.000000	
910	0.000000	0.000000	0.000000	-30.115480	-30.949902	-18.097125	1.000000	
911	0.000000	0.000000	0.000000	-30.813140	-30.574767	-18.092360	1.000000	
912	0.000000	0.000000	0.000000	-31.462859	-30.254171	-17.955475	1.000000	
[RToes]
#Fr	Tx	Ty	Tz	Rx	Ry	Rz	SF
909	0.000000	0.000000	0.000000	32.515905	0.000000	0.000000	1.000000	
910	0.000000	0.000000	0.000000	32.478888	0.000000	0.000000	1.000000	
911	0.000000	0.000000	0.000000	32.463688	0.000000	0.000000	1.000000	
912	0.000000	0.000000	0.000000	32.488243	0.000000	0.000000	1.000000	
[LUpperLeg]
#Fr	Tx	Ty	Tz	Rx	Ry	Rz	SF
909	0.000000	0.000000	0.000000	-32.625900	-9.906663	-18.577039	1.000000	
910	0.000000	0.000000	0.000000	-32.410327	-10.531677	-18.024134	1.000000	
911	0.000000	0.000000	0.000000	-32.149105	-11.039755	-17.445442	1.000000	
912	0.000000	0.000000	0.000000	-31.855446	-11.406095	-16.862381	1.000000	
[LLowerLeg]
#Fr	Tx	Ty	Tz	Rx	Ry	Rz	SF
909	0.000000	0.000000	0.000000	-18.861560	0.000000	0.000000	1.000000	
910	0.000000	0.000000	0.000000	-19.266322	0.000000	0.000000	1.000000	
911	0.000000	0.000000	0.000000	-19.736582	0.000000	0.000000	1.000000	
912	0.000000	0.000000	0.000000	-20.264587	0.000000	0.000000	1.000000	
[LFoot]
#Fr	Tx	Ty	Tz	Rx	Ry	Rz	SF
909	0.000000	0.000000	0.000000	22.391892	-39.783101	-15.831428	1.000000	
910	0.000000	0.000000	0.000000	23.052006	-40.470073	-15.757238	1.000000	
911	0.000000	0.000000	0.000000	23.633701	-40.936419	-15.703605	1.000000	
912	0.000000	0.000000	0.000000	24.056597	-41.119109	-15.588466	1.000000	
[LToes]
#Fr	Tx	Ty	Tz	Rx	Ry	Rz	SF
909	0.000000	0.000000	0.000000	-27.754901	0.000000	0.000000	1.000000	
910	0.000000	0.000000	0.000000	-28.306995	0.000000	0.000000	1.000000	
911	0.000000	0.000000	0.000000	-28.735563	0.000000	0.000000	1.000000	
912	0.000000	0.000000	0.000000	-28.929365	0.000000	0.000000	1.000000	
